<?xml version="1.0" encoding="UTF-8"?>
<svg id="Layer_2" data-name="Layer 2" xmlns="http://www.w3.org/2000/svg" viewBox="0 0 435.63 215.1">
  <defs>
    <style>
      .cls-1 {
        fill: #010101;
      }

      .cls-2 {
        fill: #919090;
      }

      .cls-3 {
        fill: #741113;
      }

      .cls-4 {
        fill: #cdcccc;
      }

      .cls-5 {
        fill: #ccc;
      }

      .cls-6 {
        fill: #565655;
      }

      .cls-7, .cls-8 {
        fill: #606161;
      }

      .cls-9 {
        fill: #4e4e4e;
      }

      .cls-10 {
        letter-spacing: .02em;
      }

      .cls-11 {
        letter-spacing: .04em;
      }

      .cls-8 {
        font-family: HelveticaNeue-Light, 'Helvetica Neue';
        font-size: 43px;
        font-weight: 300;
      }
    </style>
  </defs>
  <text class="cls-8" transform="translate(196.86 39.15)"><tspan class="cls-11"><tspan x="0" y="0">Moral</tspan></tspan><tspan class="cls-11"><tspan x="0" y="51.6">Psychology</tspan></tspan><tspan class="cls-11" x="0" y="103.2">Resea</tspan><tspan class="cls-10" x="124.05" y="103.2">r</tspan><tspan class="cls-11" x="138.37" y="103.2">ch</tspan><tspan class="cls-11"><tspan x="0" y="154.8">Lab</tspan></tspan></text>
  <g>
    <path class="cls-7" d="m84.49,192.46c-.48,1.63-.46,3.38-.49,5.07-.03,1.97-.2,4.01.42,5.9.19.57.97.57,1.16,0,.54-1.64.46-3.37.43-5.08-.03-1.95.06-4-.5-5.88-.15-.51-.87-.51-1.02,0h0Z"/>
    <path class="cls-6" d="m85.19,20.23c-.59-2.22-1.13-4.45-1.67-6.68-.55-2.22-1.08-4.46-1.81-6.58-.37-1.05-.81-2.07-1.42-2.9-.61-.84-1.4-1.41-2.34-1.71-1.92-.59-4.21-.37-6.42-.12l-.42.05h-.1s-.05.02-.08.03l-.21.03c-.28.05-.58.09-.82.15-.5.1-1.04.24-1.56.38-1.06.3-2.11.66-3.15,1.06-2.08.8-4.12,1.75-6.11,2.78-3.98,2.08-7.84,4.43-11.42,7.08-1.78,1.33-3.5,2.73-5,4.24-.74.75-1.44,1.54-1.97,2.31l-.19.28-.23.36-.46.73-.92,1.45c-2.38,3.79-4.59,7.7-6.53,11.75-1.91,4.03-3.78,8.25-5.14,12.34-.65,2.03-1.14,4.07-1.65,6.38-.54,2.29-1.17,4.64-1.94,6.88l-.57,1.69-.14.42-.1.29-.08.2-.31.8c-.38,1.04-.93,2.21-1.42,3.33-.96,2.11-1.93,4.14-2.78,6.19-1.72,4.11-3.22,8.29-4.54,12.6l-.49,1.53-.44,1.63-.85,3.28c-.55,2.19-1.07,4.39-1.54,6.58-.46,2.18-.88,4.38-1.16,6.48-.05.51-.12,1.04-.15,1.52l-.07,1.59c0,.53-.07,1.27-.11,1.88-.06.61-.11,1.22-.18,1.82-.27,2.4-.67,4.71-1.03,6.95-.18,1.12-.36,2.21-.49,3.26-.13,1.04-.22,2.08-.21,2.89.04,2.4.18,4.28.43,6.61.12,1.14.23,2.41.28,3.65.04.63.02,1.24.03,1.85,0,.62,0,1.23-.03,1.82l-.07,1.8-.05,1.62c-.06,1.2,0,2.16.03,3.19.13,2.08.35,4.19.82,6.26.44,2.08,1.04,4.14,1.74,6.24l2.14,6.53-.27-.59,3.29,5.83-.27-.4,7.48,9.33.23.29.15.31.83,1.69.89,1.69c.6,1.12,1.21,2.23,1.85,3.3.64,1.07,1.32,2.09,2.02,3,.35.45.71.86,1.04,1.17.08.07.16.15.23.21l.37.3c.25.21.5.41.79.67l1.51,1.33c.47.4.96.78,1.44,1.17l1.5,1.1c.5.37,1.04.69,1.56,1.04.52.35,1.05.69,1.61.99l1.64.96c.55.32,1.13.59,1.69.89l1.7.88.62.32.26.38c.07.1.28.38.47.57.18.22.4.43.61.65.43.43.89.84,1.36,1.24.48.4.97.79,1.49,1.16.51.37,1.04.73,1.58,1.07,1.09.67,2.2,1.32,3.37,1.88.57.3,1.16.58,1.76.84.59.28,1.19.53,1.8.77.61.25,1.22.49,1.84.7l.93.33.44.15.49.15c1.32.41,2.53.72,3.85,1.04,2.6.62,5.24,1.22,7.87,1.74l.1.02h.01c.44.15.95.29,1.44.41.5.12,1,.21,1.5.3,1.01.16,2.03.27,3.06.3.51.02,1.03,0,1.54-.02.26,0,.51-.04.77-.06.26-.03.52-.04.77-.09.51-.08,1.02-.17,1.53-.3.51-.1,1-.3,1.5-.45-.47.22-.93.49-1.43.66-.49.21-.99.37-1.51.51-.25.08-.51.13-.77.19-.26.05-.52.13-.78.16-.53.09-1.06.17-1.59.21-.53.05-1.07.08-1.6.09-.54.02-1.07,0-1.61-.03-.54-.03-1.07-.08-1.61-.15-.54-.07-1.06-.15-1.63-.27l.11.02c-2.71-.24-5.42-.49-8.12-.89-.67-.09-1.36-.21-2.05-.32-.7-.11-1.36-.25-2.02-.38l-.5-.1-.53-.13-1.01-.25c-.68-.16-1.35-.35-2.01-.56-.67-.19-1.34-.4-2-.64-.66-.23-1.33-.46-1.97-.73-1.31-.51-2.58-1.14-3.85-1.8-.63-.34-1.25-.69-1.86-1.07-.61-.38-1.21-.78-1.81-1.21-.59-.43-1.17-.88-1.74-1.37-.28-.25-.56-.5-.84-.77-.14-.13-.28-.27-.42-.42-.15-.16-.26-.27-.46-.52l.88.7-1.88-.81c-.62-.28-1.26-.52-1.88-.83l-1.85-.92c-.62-.3-1.22-.64-1.82-.99-.6-.36-1.21-.68-1.79-1.06l-1.75-1.15c-.56-.41-1.14-.82-1.7-1.24l-1.53-1.21c-.2-.17-.48-.38-.74-.57l-.42-.3c-.2-.14-.36-.28-.53-.42-.66-.57-1.19-1.13-1.68-1.7-.98-1.13-1.81-2.28-2.59-3.43-.78-1.16-1.51-2.32-2.2-3.5l-1.01-1.79c-.33-.61-.64-1.19-.98-1.84l.39.6-7.73-9.19-.12-.15-.15-.25-3.47-5.72-.15-.25-.12-.34-2.26-6.49c-.81-2.22-1.49-4.58-2.03-6.97-.56-2.41-.85-4.86-1.02-7.35-.05-1.27-.11-2.59-.06-3.68l.09-3.45c.06-2.2-.02-4.18-.29-6.4-.27-2.22-.47-4.92-.52-7.1-.04-1.48.09-2.74.23-3.97.15-1.22.32-2.4.51-3.54.38-2.29.78-4.5,1.04-6.64.07-.54.12-1.07.17-1.6.04-.53.09-.93.1-1.55l.1-1.84c.05-.66.13-1.27.2-1.9.34-2.44.8-4.75,1.31-7.04.51-2.29,1.06-4.55,1.64-6.8l.9-3.37.47-1.69.56-1.74c1.37-4.46,3.1-8.87,5.02-13.17.96-2.16,2.01-4.24,3-6.28.45-.97.91-1.86,1.35-2.97l.33-.79.08-.2.02-.05c-.06.14,0,.01-.01.03l.04-.1.14-.39.57-1.56c.77-2.08,1.37-4.15,1.94-6.31.53-2.15,1.14-4.57,2-6.87,1.72-4.55,3.75-8.65,5.92-12.81,2.2-4.14,4.64-8.14,7.32-12l1-1.4.5-.7.25-.35.31-.41c.83-1.07,1.72-1.96,2.63-2.79,1.83-1.64,3.75-3.04,5.72-4.35,3.94-2.59,8.06-4.82,12.36-6.67,2.15-.93,4.34-1.77,6.59-2.46,1.13-.34,2.27-.65,3.44-.9.59-.12,1.17-.23,1.8-.31.32-.05.59-.07.88-.09l.46-.04.44-.02c1.17-.05,2.35-.08,3.55-.01,1.2.08,2.44.25,3.65.73,1.21.48,2.29,1.41,2.95,2.49.67,1.08,1.06,2.23,1.36,3.36.6,2.27.92,4.55,1.28,6.81l1.06,6.8Z"/>
    <path class="cls-5" d="m87.95,20.55s.45-2.47,1.16-6.82c.4-2.17.71-4.82,1.68-7.81.25-.75.58-1.51,1.05-2.25.47-.74,1.13-1.43,1.96-1.91,1.67-.98,3.65-1.12,5.57-1.15.97,0,1.95.04,2.94.11.99.07,2.07.25,3.08.47,2.04.46,4.09,1.11,6.14,1.89,4.11,1.56,8.28,3.57,12.39,6.02,2.06,1.23,4.11,2.56,6.1,4.06,1.99,1.52,3.96,3.12,5.66,5.33,2.95,4.06,5.71,8.38,8.17,12.85,1.21,2.25,2.37,4.52,3.46,6.81.53,1.17,1.08,2.25,1.6,3.48.49,1.16,1,2.24,1.44,3.5.97,2.43,1.6,4.96,2.17,7.28.59,2.32,1.22,4.52,2.01,6.68.19.54.39,1.08.58,1.61l.14.4.04.1c.03.07-.02-.04,0,0l.02.05.08.2.33.8c.44,1.11.91,2.03,1.36,3.02.98,2.03,1.98,4.04,2.87,6.06,1.81,4.02,3.3,7.92,4.48,11.56.3.91.59,1.8.87,2.67l.21.65.21.7c.13.43.25.85.38,1.27.53,1.66.84,3.28,1.19,4.78.34,1.51.51,2.96.71,4.29.14,1.34.25,2.58.3,3.71.06,2.27-.04,4.07-.27,5.3-.08.61-.22,1.08-.3,1.39-.08.31-.13.47-.13.47,0,0-.24-.61-.69-1.74-.45-1.11-1.08-2.73-1.85-4.79-.36-1.03-.76-2.17-1.2-3.42-.36-1.26-.86-2.6-1.25-4.06-.39-1.46-.89-3-1.25-4.66-.1-.41-.2-.83-.31-1.25l-.15-.58-.2-.63c-.27-.85-.55-1.71-.83-2.6-1.14-3.54-2.47-7.31-4.15-11.19-.82-1.95-1.76-3.93-2.72-6-.48-1.08-1.02-2.22-1.41-3.27l-.32-.81-.08-.2-.1-.27-.14-.42c-.19-.57-.39-1.14-.58-1.71-.79-2.28-1.44-4.7-2-7.09-.55-2.39-1.07-4.65-1.87-6.85-.33-1.08-.85-2.27-1.3-3.42-.41-1.08-.96-2.25-1.44-3.38-1-2.26-2.06-4.5-3.17-6.71-2.25-4.41-4.83-8.63-7.53-12.7-1.25-1.77-3.04-3.41-4.85-4.89-1.83-1.49-3.75-2.85-5.69-4.11-3.9-2.51-7.85-4.69-11.75-6.39-1.95-.85-3.88-1.57-5.78-2.1-.96-.25-1.86-.45-2.82-.58-.96-.11-1.9-.21-2.82-.25-1.82-.08-3.6,0-4.96.72-1.38.69-2.18,2.1-2.73,3.47-1.06,2.8-1.58,5.45-2.1,7.58-.98,4.29-1.59,6.73-1.59,6.73Z"/>
    <path class="cls-7" d="m85.73,29.5c-.48,1.63-.46,3.38-.49,5.07-.03,1.97-.2,4.01.42,5.9.19.57.97.57,1.16,0,.54-1.64.46-3.37.43-5.09-.03-1.95.06-4-.5-5.88-.15-.51-.87-.51-1.02,0h0Z"/>
    <path class="cls-7" d="m153.11,115.04c-1.63-.48-3.38-.46-5.07-.49-1.97-.03-4.01-.2-5.9.42-.57.19-.57.97,0,1.16,1.64.54,3.37.46,5.08.43,1.95-.03,4,.06,5.88-.5.51-.15.51-.87,0-1.03h0Z"/>
    <path class="cls-7" d="m29.36,115.04c-1.63-.48-3.38-.46-5.07-.49-1.97-.03-4.01-.2-5.9.42-.57.19-.57.97,0,1.16,1.64.54,3.37.46,5.08.43,1.95-.03,4,.06,5.88-.5.51-.15.51-.87,0-1.03h0Z"/>
    <path class="cls-7" d="m139.05,175.66c-.85-1.58-2.22-2.93-3.42-4.26-1.21-1.35-2.38-2.78-3.91-3.79-.4-.26-.82.24-.62.62.87,1.61,2.22,2.91,3.46,4.24,1.22,1.3,2.44,2.76,3.94,3.74.35.23.73-.21.55-.54h0Z"/>
    <path class="cls-2" d="m72.19,55.97l-.89-.2c-.29-.09-.58-.27-.87-.4-.53-.34-1.01-.76-1.39-1.26-.22-.23-.36-.51-.52-.78-.17-.26-.31-.54-.43-.83-.28-.56-.44-1.16-.63-1.74-.13-.6-.29-1.2-.37-1.81-.11-.61-.14-1.22-.2-1.84-.01-.62-.05-1.23-.02-1.85,0-.62.07-1.23.14-1.84l.14-.92.21-.91c.1-.31.18-.59.31-.92.14-.27.24-.55.41-.82.31-.57.65-1.07,1.01-1.57.36-.5.74-.98,1.12-1.46.75-.96,1.5-1.9,2.08-2.92.28-.51.55-1.04.72-1.59.2-.54.29-1.11.34-1.68v.03c-.04-.96-.4-1.94-.92-2.8-.52-.86-1.22-1.63-2.06-2.13-.83-.49-1.8-.72-2.64-.37-.41.16-.84.44-1.14.74-.21.26-.41.74-.51,1.21-.22.98-.26,2.04-.44,3.15-.1.55-.2,1.13-.56,1.73-.18.29-.46.59-.84.76-.38.16-.76.17-1.1.14-.67-.09-1.21-.34-1.72-.61-.49-.27-1.01-.57-1.45-1.03-.84-.85-1.4-1.8-1.99-2.69-.57-.87-1.16-1.78-1.86-2.24-.35-.23-.67-.31-1.03-.24-.36.06-.76.27-1.14.55-.38.27-.74.63-1.08.99-.16.18-.36.39-.49.56l-.5.63c-.52.76-.87,1.61-.74,2.41.14.81.72,1.6,1.39,2.39.66.8,1.45,1.58,2.07,2.64.14.28.31.53.4.84l.16.45.12.3c.19.48.41,1.04.54,1.65.12.59.21,1.39-.27,2.19-.25.38-.62.66-.97.81-.36.16-.69.22-1.03.28h-.02s-.08,0-.08,0c-.65.02-1.32-.32-1.71-.71-.4-.39-.66-.79-.89-1.17-.44-.75-.82-1.48-1.21-1.82-.08-.08-.2-.13-.23-.15l-.59-.2-.42-.06c-.14-.02-.3,0-.45,0-.61.05-1.2.33-1.71.77-1.03.9-1.73,2.31-2.08,3.76-.08.36-.15.73-.18,1.1l-.02.14v.07s-.01.03-.01.03c0-.03,0,.08,0-.06h0s0,.03,0,.03v.31s0,.62,0,.62c.05.67.18,1.37.48,1.87.29.49.75.81,1.39,1.03.63.21,1.4.3,2.18.36l2.46.12c.86.04,1.66.1,2.52.19,1.68.17,3.54.45,5.2,1.5.82.52,1.53,1.21,2.1,1.97.56.77.96,1.6,1.31,2.43v.03s.03.06.03.06c.4,1.4.6,2.81.62,4.25.02,1.43-.15,2.9-.65,4.34-.25.72-.62,1.42-1.09,2.08-.25.32-.51.63-.83.91l-.11.11-.06.05-.03.03h-.01c.1-.06-.15.12-.13.11l-.21.13c-.16.09-.25.17-.45.28-1.54.85-3.21.96-4.71.71-1.5-.24-2.83-.75-4.1-1.29-1.27-.54-2.46-1.12-3.65-1.63-1.19-.52-2.36-.97-3.52-1.24-1.16-.27-2.28-.31-3.29-.04-.13.03-.25.08-.37.12-.04.01-.17.06-.14.04l-.23.1-.91.39-.75.39c-.22.15-.48.29-.67.45-.42.3-.6.63-.6.68-.02.03,0,.06.03.17.02.06.08.14.11.21.05.08.13.17.19.26.64.76,1.71,1.56,2.76,2.38,1.05.88,2.24,1.65,3.18,3.35.22.43.41.98.41,1.58,0,.3,0,.6-.09.88-.07.29-.15.58-.29.8-.24.51-.55.84-.86,1.2-.31.28-.63.59-.95.81-.64.47-1.29.82-1.93,1.16-.22.13-.79.35-1.18.46-.38.11-.74.2-1.09.27-1.38.29-2.68.43-3.78.76-.55.15-1.05.35-1.37.59-.33.24-.49.45-.59.72l.04-.16c-.05.36.01.68.3,1.09.28.41.74.82,1.28,1.19,1.1.71,2.47,1.26,3.8,1.54.68.14,1.24.2,1.74.08.49-.1,1.14-.37,1.73-.71,1.22-.68,2.44-1.62,3.67-2.57,1.24-.95,2.49-1.96,3.94-2.84.73-.44,1.5-.85,2.4-1.14.89-.28,1.97-.43,3.04-.14,1.07.28,1.95.97,2.54,1.69.17.18.29.37.43.55l.2.28.07.11.02.03.03.06.07.13.28.52.29.66c.34.87.55,1.76.58,2.69.03.93-.11,1.85-.38,2.71-.55,1.74-1.61,3.15-2.76,4.35-1.16,1.2-2.47,2.21-3.83,3.09-1.37.88-2.79,1.63-4.27,2.28-.74.32-1.5.61-2.27.86l-.59.18c-.3.07-.4.09-.65.13-.43.08-.81.12-1.22.17-3.15.35-6.26.46-9.33.95-1.53.24-3.06.54-4.48,1.08-.71.28-1.4.6-1.97,1.08-.57.47-.94,1.14-.94,1.89l-.3.02c-.08-.83.31-1.69.91-2.26.6-.58,1.31-.99,2.04-1.33,1.47-.66,3.02-1.06,4.56-1.41,3.09-.67,6.25-1.04,9.3-1.5.37-.06.77-.13,1.1-.2.14-.03.42-.1.5-.12l.53-.19c.7-.26,1.4-.56,2.08-.9,1.37-.67,2.68-1.44,3.92-2.31,1.23-.87,2.38-1.85,3.35-2.95.96-1.09,1.75-2.32,2.1-3.6.38-1.27.29-2.6-.23-3.79l-.18-.42-.29-.51c-.1-.2-.36-.52-.54-.73-.41-.47-.86-.76-1.31-.86-.9-.24-2.19.3-3.39,1.08-1.21.78-2.4,1.77-3.61,2.75-1.22.99-2.46,2.02-3.96,2.91-.76.44-1.54.85-2.59,1.09-1.04.25-2.07.14-2.92-.04-1.74-.36-3.33-.98-4.87-1.95-.76-.51-1.51-1.12-2.13-2-.62-.85-1.02-2.15-.8-3.35l.02-.09.02-.07c.29-1.01,1.01-1.88,1.77-2.4.77-.54,1.54-.82,2.26-1.03,1.45-.43,2.82-.59,4.04-.83.31-.06.59-.12.85-.2.24-.08.3-.06.67-.25.54-.28,1.06-.56,1.5-.87.23-.15.39-.32.58-.47.12-.15.27-.3.31-.41.09-.22.11-.23-.02-.56-.32-.67-1.33-1.55-2.32-2.34-1.02-.84-2.13-1.61-3.2-2.9-.13-.18-.26-.35-.38-.55-.12-.22-.24-.42-.34-.68-.19-.51-.31-1.16-.17-1.78.28-1.27,1.1-1.96,1.73-2.44.34-.25.67-.43,1-.64l1.03-.51.93-.38.23-.09c.18-.07.22-.07.33-.11.19-.06.38-.12.58-.17,1.58-.39,3.19-.25,4.61.1,1.43.36,2.73.9,3.97,1.47,1.24.57,2.43,1.17,3.6,1.69,1.17.52,2.34.98,3.47,1.17,1.11.22,2.23.08,3.05-.34.93-.44,1.53-1.33,1.94-2.39.39-1.07.56-2.29.56-3.51,0-1.22-.16-2.47-.48-3.63l.03.09c-.28-.69-.59-1.37-1-1.94-.41-.57-.9-1.05-1.47-1.43-1.14-.76-2.65-1.06-4.24-1.24-.78-.09-1.63-.16-2.42-.21l-2.49-.15c-.86-.08-1.76-.18-2.69-.5-.92-.3-1.92-.98-2.45-1.93-.54-.94-.67-1.92-.72-2.89v-.62s.01-.31.01-.31v-.11s0-.04,0-.04v-.08s.03-.17.03-.17c.05-.46.14-.9.24-1.34.22-.88.55-1.73,1-2.53.45-.8,1.01-1.56,1.76-2.19.74-.62,1.72-1.1,2.76-1.16.26,0,.51-.02.78.01.27.04.56.09.8.15l.59.21c.35.14.6.3.82.5.84.79,1.14,1.62,1.55,2.27.19.33.39.62.58.81.2.19.33.24.51.25h-.1c.42-.05.71-.17.78-.31.1-.13.15-.48.05-.92-.09-.44-.25-.88-.45-1.41l-.27-.76c-.05-.21-.18-.41-.28-.61-.45-.82-1.17-1.58-1.87-2.43-.68-.85-1.46-1.83-1.69-3.17-.2-1.36.38-2.62,1.09-3.58l.51-.62c.2-.25.39-.43.58-.65.4-.4.81-.8,1.31-1.15.49-.34,1.06-.66,1.76-.77.7-.13,1.48.1,2.01.48,1.08.78,1.62,1.78,2.21,2.68.57.91,1.1,1.82,1.77,2.51.3.33.71.59,1.15.84.43.25.88.44,1.28.5.4.04.6-.03.81-.34.21-.31.33-.81.43-1.3.19-1.01.24-2.09.52-3.21.15-.56.32-1.12.8-1.69.46-.45.96-.75,1.55-.97,1.19-.46,2.52-.11,3.49.51,1,.63,1.75,1.51,2.33,2.49.56.98.96,2.07.99,3.26v.02s0,.01,0,.01c-.08.64-.19,1.28-.42,1.88-.2.61-.5,1.17-.82,1.71-.65,1.08-1.43,2.03-2.2,2.97-.38.47-.76.94-1.13,1.42-.35.48-.71.97-.99,1.47-.16.24-.28.53-.42.8l-.28.81-.21.86-.15.88c-.07.59-.15,1.19-.16,1.79-.04.6-.02,1.2-.02,1.8.05.6.07,1.2.16,1.79.06.6.21,1.18.33,1.77.17.57.33,1.15.58,1.69.1.28.24.55.39.8.15.25.28.53.48.74.34.48.79.88,1.27,1.2.26.12.49.29.77.38l.89.22-.07.29Z"/>
    <path class="cls-2" d="m26.11,137.08c.36,1.62.86,3.23,1.8,4.56.48.65,1.07,1.21,1.77,1.51.7.3,1.5.34,2.25.14.75-.21,1.47-.54,2.13-1l.5-.33c.11-.09.31-.26.44-.38.25-.26.5-.56.76-.88,1.02-1.28,1.89-2.72,3.27-3.91.67-.57,1.65-1.14,2.77-.97l.41.07c.13.04.24.1.36.15.24.11.49.22.66.38l.29.23.14.12.07.06s-.05-.06.11.11l.02.03.39.49c.61.91.78,1.95.71,2.9-.07.96-.34,1.85-.69,2.66-.71,1.64-1.7,3.07-2.78,4.41l-1.6,1.92c-.57.66-1.15,1.28-1.72,1.88-2.29,2.41-4.6,4.76-6.33,7.4-1.69,2.62-2.66,5.63-1.54,8.29.08.31.28.73.44,1.1.17.37.32.64.5.96.37.63.8,1.19,1.29,1.67.98.96,2.22,1.45,3.58,1.5,1.37.05,2.83-.33,4.21-.94,1.39-.59,2.72-1.42,3.97-2.36,1.24-.95,2.39-2,3.4-3.2.98-1.19,2.02-2.6,3.26-3.87.64-.64,1.29-1.28,2.19-1.83.22-.14.48-.26.72-.38.25-.12.57-.2.85-.29.31-.07.67-.09,1-.11.35.04.72.09,1.05.19.31.14.65.29.92.46.17.12.32.2.61.46.5.44.88.92,1.15,1.54.52,1.24.37,2.46.15,3.38-.22.95-.54,1.76-.79,2.51-.25.73-.43,1.46-.38,1.79.02.17.04.2.11.28.04.04.09.09.19.15.04.03.08.06.15.08l.09.04.04.02h.02s-.25-.08-.11-.03l.58.17s.02-.01.06-.03c.04-.03.1,0,.14-.04.02-.02.05-.01.08-.03.03-.03.06-.06.1-.09.29-.23.65-.85.9-1.51.26-.68.48-1.42.67-2.19.39-1.55.68-3.18,1.1-4.86.23-.85.45-1.7.94-2.66.1-.23.31-.5.47-.75.26-.27.46-.54.91-.77.36-.24.97-.33,1.39-.28.22.03.43.08.64.14.16.07.31.15.46.23.59.33.96.69,1.29,1.05.37.36.61.72.9,1.08l.38.55.19.27.09.14.05.07.08.13.02.03.59,1.11c.18.48.36.96.52,1.44l.29,1.37c.12.91.18,1.83.15,2.73-.07,1.8-.4,3.56-.96,5.24-.55,1.68-1.33,3.29-2.37,4.76-1.04,1.45-2.36,2.83-4.19,3.63-.85.38-1.89.56-2.77.61-.9.06-1.76.03-2.58.02-1.63-.04-3.14.01-4.29.75h-.01s-.05.04-.05.04c-.52.31-1.04.63-1.44,1.09-.43.43-.77.95-1.04,1.5-.28.55-.43,1.16-.53,1.76-.05.61-.06,1.23.09,1.83.15.59.36,1.17.74,1.65.16.27.39.47.6.7.21.19.52.42.69.55.66.38,1.14.58,1.72.65.56.06,1.1-.14,1.62-.5.52-.36,1.02-.86,1.59-1.33.56-.47,1.25-.91,2.04-1.07.2-.03.38-.08.6-.08h.53c.16-.03.39.04.59.07.2.04.41.07.58.18.76.28,1.31.91,1.67,1.55.38.65.59,1.36.75,2.06.15.7.23,1.42.28,2.12.1,1.42.05,2.83,0,4.24-.06-1.41-.11-2.82-.32-4.21-.1-.69-.23-1.38-.43-2.04-.19-.66-.42-1.31-.8-1.86-.35-.55-.83-1.02-1.42-1.2-.14-.08-.29-.08-.43-.1-.15-.01-.26-.07-.46-.04l-.53.04c-.13,0-.29.06-.44.09-.59.16-1.12.53-1.61.98-.5.45-.97.99-1.58,1.47-.59.48-1.44.87-2.31.82-.83-.02-1.68-.38-2.25-.67-.42-.24-.69-.44-1.01-.69-.29-.27-.6-.53-.83-.86-.52-.62-.86-1.36-1.08-2.13-.23-.77-.25-1.58-.21-2.37.1-.79.26-1.57.59-2.3.32-.73.74-1.42,1.28-2.01.51-.62,1.18-1.1,1.86-1.53l-.06.04c.81-.56,1.76-.88,2.67-1.05.92-.16,1.8-.19,2.64-.2,1.69-.02,3.21,0,4.46-.59,1.22-.58,2.29-1.68,3.13-2.94.84-1.26,1.5-2.69,1.93-4.18.44-1.49.71-3.02.74-4.54.02-.76-.05-1.5-.16-2.24l-.24-1.06c-.12-.3-.23-.59-.33-.9l-.6-1.08-.62-.85c-.44-.57-1-1.17-1.33-1.33-.03-.01-.06-.04-.09-.06,0,.02.02.03.03.02,0-.03.07.02.1,0,.05-.03.07-.03.1-.03.06-.06,0,.02-.03.04-.05.11-.12.16-.18.31-.26.53-.48,1.29-.66,2.05-.37,1.54-.66,3.19-1.06,4.86-.2.84-.44,1.69-.78,2.57-.36.86-.74,1.8-1.71,2.67l-.39.31c-.15.09-.31.17-.47.25-.31.18-.69.23-1.05.3-.36.05-.79,0-1.18-.06l-.61-.18c.11.04-.19-.07-.18-.06l-.05-.02-.1-.05-.2-.09c-.13-.06-.26-.13-.4-.22-.26-.16-.53-.38-.78-.63-.51-.52-.82-1.3-.89-1.95-.11-1.33.25-2.23.5-3.07.27-.82.55-1.57.7-2.24.3-1.44.02-1.82-.89-2.34-.16-.09-.56-.02-1.11.3-.53.31-1.09.83-1.62,1.36-1.09,1.1-2.03,2.36-3.17,3.73-1.14,1.34-2.46,2.54-3.86,3.59-1.41,1.05-2.92,1.98-4.59,2.68-1.66.69-3.5,1.18-5.46,1.08-1.95-.07-3.98-.94-5.35-2.36-.69-.7-1.25-1.47-1.7-2.29-.22-.4-.45-.88-.62-1.26-.16-.4-.31-.73-.46-1.22-.71-1.77-.74-3.83-.28-5.63.46-1.82,1.31-3.43,2.3-4.88,2.01-2.87,4.47-5.21,6.81-7.54.59-.58,1.16-1.16,1.71-1.73l1.67-1.84c1.05-1.2,2.02-2.49,2.68-3.88.34-.69.58-1.41.65-2.1.08-.7-.04-1.37-.32-1.87l-.36-.51-.02-.03c.13.16.02.03.05.06l-.05-.04-.1-.08-.19-.17c-.12-.14-.26-.19-.4-.26-.07-.03-.13-.08-.2-.11l-.21-.04c-.54-.13-1.19.13-1.78.58-1.21.92-2.19,2.29-3.3,3.55-.28.31-.58.63-.93.95-.18.15-.3.24-.52.4l-.56.33c-.73.45-1.56.77-2.41.96-.86.18-1.82.09-2.61-.31-.81-.4-1.41-1.07-1.86-1.79-.88-1.47-1.25-3.13-1.49-4.77Z"/>
    <path class="cls-1" d="m71.89,113.42c-.05-.02-.1-.04-.15-.06-1.97-.57-3.96-.12-5.98.03-2.39.18-4.79.34-7.18.51-4.43.31-9.24.21-13.52,1.44-.16.05-.16.29,0,.33,4.01,1.16,8.47,1.09,12.62,1.38,2.39.17,4.79.34,7.18.51,2.27.16,4.66.73,6.88.09,0,0,.02,0,.03-.01-.07-.56-.11-1.12-.11-1.69,0-.86.09-1.71.24-2.53Z"/>
    <path class="cls-1" d="m126.6,115.33c-4.51-1.3-9.58-1.19-14.24-1.52-2.52-.18-5.05-.34-7.57-.53-1.63-.12-3.25-.42-4.86-.29.2.96.31,1.94.31,2.96,0,.71-.07,1.41-.17,2.09,1.87.15,3.8-.24,5.66-.37,2.52-.18,5.05-.36,7.57-.54,4.37-.31,9.07-.23,13.3-1.46.17-.05.17-.3,0-.35Z"/>
    <path class="cls-1" d="m83.35,130.01c.05,3.57.13,7.1.23,10.51.22,7.69.55,14.86.92,21.01.38,6.15.8,11.27,1.14,14.86.15,1.79.33,3.2.42,4.16.11.96.17,1.47.17,1.47,0,0,.06-.51.17-1.47.1-.96.27-2.37.42-4.16.34-3.59.76-8.71,1.14-14.86.38-6.15.7-13.32.92-21.01.1-3.46.18-7.03.23-10.64-1.02.23-2.09.37-3.18.37-.89,0-1.75-.08-2.6-.24Z"/>
    <path class="cls-1" d="m89.1,102.01c-.05-3.28-.12-6.52-.22-9.66-.22-7.69-.55-14.86-.92-21.01-.38-6.15-.8-11.27-1.14-14.86-.15-1.79-.33-3.2-.42-4.16-.11-.96-.17-1.47-.17-1.47,0,0-.06.51-.17,1.47-.09.96-.27,2.37-.42,4.16-.34,3.59-.75,8.71-1.14,14.86-.37,6.15-.7,13.32-.92,21.01-.09,3.1-.16,6.29-.21,9.52.84-.15,1.7-.23,2.58-.23,1.09,0,2.14.13,3.16.36Z"/>
    <path class="cls-4" d="m89.13,111.28c-34.88,32.28-36.76,34.03-43.01,44.78-.57.98,4.67-2.1,6.19-3.26l3.54-2.78c6.41-5.01,21.68-23.49,35.27-37.33"/>
    <path class="cls-3" d="m86.84,117c34.88-32.28,36.76-34.03,43.01-44.78.57-.98-4.67,2.1-6.19,3.26l-3.54,2.78c-6.41,5.01-21.8,23.27-35.4,37.1"/>
    <path class="cls-9" d="m90.06,115.56c0,2.37-1.92,4.3-4.3,4.3s-4.3-1.93-4.3-4.3,1.92-4.3,4.3-4.3,4.3,1.93,4.3,4.3Z"/>
  </g>
</svg>